<mxfile host="app.diagrams.net" modified="2024-01-19T20:39:11.811Z" agent="Mozilla/5.0 (Windows NT 10.0; Win64; x64) AppleWebKit/537.36 (KHTML, like Gecko) Chrome/120.0.0.0 Safari/537.36" etag="ArsSk3TN-2sNC_oAEQMK" version="22.1.21" type="device">
  <diagram name="Page-1" id="edf60f1a-56cd-e834-aa8a-f176f3a09ee4">
    <mxGraphModel dx="1430" dy="772" grid="1" gridSize="10" guides="1" tooltips="1" connect="1" arrows="1" fold="1" page="1" pageScale="1" pageWidth="1100" pageHeight="850" background="none" math="0" shadow="0">
      <root>
        <mxCell id="0" />
        <mxCell id="1" parent="0" />
        <mxCell id="Q03Ym0OiFlbxsvo_SQOm-8" style="edgeStyle=orthogonalEdgeStyle;rounded=0;orthogonalLoop=1;jettySize=auto;html=1;exitX=0.5;exitY=1;exitDx=0;exitDy=0;entryX=0.5;entryY=0;entryDx=0;entryDy=0;" edge="1" parent="1" source="60e70716793133e9-10" target="Q03Ym0OiFlbxsvo_SQOm-2">
          <mxGeometry relative="1" as="geometry" />
        </mxCell>
        <mxCell id="60e70716793133e9-10" value="Get Lease IP&lt;br&gt;Get Pool IP" style="whiteSpace=wrap;html=1;rounded=0;shadow=1;labelBackgroundColor=none;strokeWidth=1;fontFamily=Verdana;fontSize=8;align=center;" parent="1" vertex="1">
          <mxGeometry x="190" y="240" width="120" height="40" as="geometry" />
        </mxCell>
        <mxCell id="Q03Ym0OiFlbxsvo_SQOm-3" style="edgeStyle=orthogonalEdgeStyle;rounded=0;orthogonalLoop=1;jettySize=auto;html=1;exitX=0.5;exitY=1;exitDx=0;exitDy=0;exitPerimeter=0;" edge="1" parent="1" source="60e70716793133e9-30" target="60e70716793133e9-10">
          <mxGeometry relative="1" as="geometry" />
        </mxCell>
        <mxCell id="60e70716793133e9-30" value="DHCPv6 Renew" style="strokeWidth=1;html=1;shape=mxgraph.flowchart.terminator;whiteSpace=wrap;rounded=0;shadow=1;labelBackgroundColor=none;fontFamily=Verdana;fontSize=8;align=center;" parent="1" vertex="1">
          <mxGeometry x="190" y="140" width="120" height="40" as="geometry" />
        </mxCell>
        <mxCell id="Q03Ym0OiFlbxsvo_SQOm-21" style="edgeStyle=orthogonalEdgeStyle;rounded=0;orthogonalLoop=1;jettySize=auto;html=1;exitX=0.5;exitY=1;exitDx=0;exitDy=0;entryX=0.5;entryY=0;entryDx=0;entryDy=0;" edge="1" parent="1" source="Q03Ym0OiFlbxsvo_SQOm-2" target="Q03Ym0OiFlbxsvo_SQOm-18">
          <mxGeometry relative="1" as="geometry" />
        </mxCell>
        <mxCell id="Q03Ym0OiFlbxsvo_SQOm-23" style="edgeStyle=orthogonalEdgeStyle;rounded=0;orthogonalLoop=1;jettySize=auto;html=1;exitX=1;exitY=0.5;exitDx=0;exitDy=0;entryX=0.5;entryY=0;entryDx=0;entryDy=0;" edge="1" parent="1" source="Q03Ym0OiFlbxsvo_SQOm-2" target="Q03Ym0OiFlbxsvo_SQOm-22">
          <mxGeometry relative="1" as="geometry" />
        </mxCell>
        <mxCell id="Q03Ym0OiFlbxsvo_SQOm-2" value="Is Lease IP different&amp;nbsp; from Pool IP ?" style="rhombus;whiteSpace=wrap;html=1;rounded=0;shadow=1;labelBackgroundColor=none;strokeWidth=1;fontFamily=Verdana;fontSize=8;align=center;" vertex="1" parent="1">
          <mxGeometry x="200" y="340" width="100" height="60" as="geometry" />
        </mxCell>
        <mxCell id="Q03Ym0OiFlbxsvo_SQOm-15" style="edgeStyle=orthogonalEdgeStyle;rounded=0;orthogonalLoop=1;jettySize=auto;html=1;exitX=0.5;exitY=1;exitDx=0;exitDy=0;entryX=0.5;entryY=0;entryDx=0;entryDy=0;" edge="1" parent="1" source="Q03Ym0OiFlbxsvo_SQOm-5" target="Q03Ym0OiFlbxsvo_SQOm-7">
          <mxGeometry relative="1" as="geometry" />
        </mxCell>
        <mxCell id="Q03Ym0OiFlbxsvo_SQOm-5" value="Update Pool with lease IP" style="whiteSpace=wrap;html=1;rounded=0;shadow=1;labelBackgroundColor=none;strokeWidth=1;fontFamily=Verdana;fontSize=8;align=center;" vertex="1" parent="1">
          <mxGeometry x="450" y="460" width="120" height="40" as="geometry" />
        </mxCell>
        <mxCell id="Q03Ym0OiFlbxsvo_SQOm-17" style="edgeStyle=orthogonalEdgeStyle;rounded=0;orthogonalLoop=1;jettySize=auto;html=1;exitX=0.5;exitY=1;exitDx=0;exitDy=0;entryX=0.5;entryY=0;entryDx=0;entryDy=0;" edge="1" parent="1" source="Q03Ym0OiFlbxsvo_SQOm-6" target="Q03Ym0OiFlbxsvo_SQOm-10">
          <mxGeometry relative="1" as="geometry" />
        </mxCell>
        <mxCell id="Q03Ym0OiFlbxsvo_SQOm-6" value="Recreate IPV6 routes" style="whiteSpace=wrap;html=1;rounded=0;shadow=1;labelBackgroundColor=none;strokeWidth=1;fontFamily=Verdana;fontSize=8;align=center;" vertex="1" parent="1">
          <mxGeometry x="450" y="600" width="120" height="40" as="geometry" />
        </mxCell>
        <mxCell id="Q03Ym0OiFlbxsvo_SQOm-16" style="edgeStyle=orthogonalEdgeStyle;rounded=0;orthogonalLoop=1;jettySize=auto;html=1;exitX=0.5;exitY=1;exitDx=0;exitDy=0;" edge="1" parent="1" source="Q03Ym0OiFlbxsvo_SQOm-7" target="Q03Ym0OiFlbxsvo_SQOm-6">
          <mxGeometry relative="1" as="geometry" />
        </mxCell>
        <mxCell id="Q03Ym0OiFlbxsvo_SQOm-7" value="Set DHCP server with new updated pool" style="whiteSpace=wrap;html=1;rounded=0;shadow=1;labelBackgroundColor=none;strokeWidth=1;fontFamily=Verdana;fontSize=8;align=center;" vertex="1" parent="1">
          <mxGeometry x="450" y="530" width="120" height="40" as="geometry" />
        </mxCell>
        <mxCell id="Q03Ym0OiFlbxsvo_SQOm-9" value="Yes" style="text;html=1;align=center;verticalAlign=middle;resizable=0;points=[];autosize=1;strokeColor=none;fillColor=none;" vertex="1" parent="1">
          <mxGeometry x="330" y="338" width="40" height="30" as="geometry" />
        </mxCell>
        <mxCell id="Q03Ym0OiFlbxsvo_SQOm-10" value="Send syslog message with previous IP and new IP" style="whiteSpace=wrap;html=1;rounded=0;shadow=1;labelBackgroundColor=none;strokeWidth=1;fontFamily=Verdana;fontSize=8;align=center;" vertex="1" parent="1">
          <mxGeometry x="450" y="670" width="120" height="40" as="geometry" />
        </mxCell>
        <mxCell id="Q03Ym0OiFlbxsvo_SQOm-11" value="Script end" style="strokeWidth=1;html=1;shape=mxgraph.flowchart.terminator;whiteSpace=wrap;rounded=0;shadow=1;labelBackgroundColor=none;fontFamily=Verdana;fontSize=8;align=center;" vertex="1" parent="1">
          <mxGeometry x="190" y="730" width="120" height="40" as="geometry" />
        </mxCell>
        <mxCell id="Q03Ym0OiFlbxsvo_SQOm-13" style="edgeStyle=orthogonalEdgeStyle;rounded=0;orthogonalLoop=1;jettySize=auto;html=1;exitX=0.5;exitY=1;exitDx=0;exitDy=0;entryX=1;entryY=0.5;entryDx=0;entryDy=0;entryPerimeter=0;" edge="1" parent="1" source="Q03Ym0OiFlbxsvo_SQOm-10" target="Q03Ym0OiFlbxsvo_SQOm-11">
          <mxGeometry relative="1" as="geometry" />
        </mxCell>
        <mxCell id="Q03Ym0OiFlbxsvo_SQOm-14" value="No" style="text;html=1;align=center;verticalAlign=middle;resizable=0;points=[];autosize=1;strokeColor=none;fillColor=none;" vertex="1" parent="1">
          <mxGeometry x="200" y="410" width="40" height="30" as="geometry" />
        </mxCell>
        <mxCell id="Q03Ym0OiFlbxsvo_SQOm-24" style="edgeStyle=orthogonalEdgeStyle;rounded=0;orthogonalLoop=1;jettySize=auto;html=1;exitX=0.5;exitY=1;exitDx=0;exitDy=0;" edge="1" parent="1" source="Q03Ym0OiFlbxsvo_SQOm-18" target="Q03Ym0OiFlbxsvo_SQOm-11">
          <mxGeometry relative="1" as="geometry" />
        </mxCell>
        <mxCell id="Q03Ym0OiFlbxsvo_SQOm-18" value="Send syslog message indicating no changes of IP" style="whiteSpace=wrap;html=1;rounded=0;shadow=1;labelBackgroundColor=none;strokeWidth=1;fontFamily=Verdana;fontSize=8;align=center;" vertex="1" parent="1">
          <mxGeometry x="190" y="530" width="120" height="40" as="geometry" />
        </mxCell>
        <mxCell id="Q03Ym0OiFlbxsvo_SQOm-25" style="edgeStyle=orthogonalEdgeStyle;rounded=0;orthogonalLoop=1;jettySize=auto;html=1;exitX=0.5;exitY=1;exitDx=0;exitDy=0;entryX=0.5;entryY=0;entryDx=0;entryDy=0;" edge="1" parent="1" source="Q03Ym0OiFlbxsvo_SQOm-22" target="Q03Ym0OiFlbxsvo_SQOm-5">
          <mxGeometry relative="1" as="geometry" />
        </mxCell>
        <mxCell id="Q03Ym0OiFlbxsvo_SQOm-22" value="Send syslog message indicating IP changes" style="whiteSpace=wrap;html=1;rounded=0;shadow=1;labelBackgroundColor=none;strokeWidth=1;fontFamily=Verdana;fontSize=8;align=center;" vertex="1" parent="1">
          <mxGeometry x="450" y="390" width="120" height="40" as="geometry" />
        </mxCell>
      </root>
    </mxGraphModel>
  </diagram>
</mxfile>
